<?xml version="1.0" standalone="no"?>
<!DOCTYPE svg PUBLIC "-//W3C//DTD SVG 20010904//EN"
 "http://www.w3.org/TR/2001/REC-SVG-20010904/DTD/svg10.dtd">
<svg version="1.0" xmlns="http://www.w3.org/2000/svg"
 width="376.000000pt" height="664.000000pt" viewBox="0 0 376.000000 664.000000"
 preserveAspectRatio="xMidYMid meet">

<g transform="translate(0.000000,664.000000) scale(0.100000,-0.100000)"
fill="#000000" stroke="none">
<path d="M1845 6203 c-196 -23 -293 -45 -435 -100 -347 -133 -639 -397 -814
-738 -85 -165 -146 -393 -162 -606 -7 -90 8 -279 31 -390 28 -134 184 -587
455 -1319 39 -107 91 -249 115 -315 24 -66 58 -158 75 -205 18 -47 63 -170
101 -275 73 -200 108 -294 213 -570 35 -93 77 -208 94 -255 16 -47 41 -114 56
-150 14 -36 62 -164 106 -285 89 -241 182 -488 185 -493 1 -1 11 21 23 50 11
29 62 147 112 263 101 232 148 341 250 580 37 88 104 243 148 345 43 102 111
259 149 350 633 1489 856 2047 902 2258 61 274 49 537 -36 806 -81 260 -255
516 -473 698 -167 139 -380 249 -595 306 -148 39 -377 60 -500 45z m348 -339
c130 -27 316 -99 396 -154 14 -9 46 -30 71 -46 71 -46 227 -202 286 -286 350
-496 285 -1160 -153 -1579 -144 -138 -338 -244 -547 -301 -71 -20 -105 -23
-281 -23 -176 0 -211 3 -288 23 -99 26 -256 90 -332 136 -359 216 -578 585
-593 997 -12 337 101 632 338 882 82 87 220 192 317 241 109 55 297 112 418
126 91 11 280 3 368 -16z"/>
<path d="M1401 5495 c-24 -7 -57 -26 -73 -42 -60 -57 -59 -40 -58 -706 0 -576
1 -610 19 -645 11 -20 31 -48 45 -61 23 -21 26 -33 26 -88 0 -49 4 -67 19 -82
41 -41 183 -42 226 -1 21 19 25 33 25 77 l0 53 85 0 85 0 0 60 0 60 185 0 185
0 0 -60 0 -59 63 -3 62 -3 3 -51 c2 -40 9 -57 28 -75 23 -21 35 -24 108 -24
62 0 89 4 109 18 25 16 27 22 27 88 0 66 2 74 34 110 19 22 39 59 45 82 7 27
10 240 11 607 0 618 -1 639 -57 695 -63 62 -37 60 -623 62 -431 2 -543 -1
-579 -12z m861 -95 c3 -17 2 -32 0 -35 -3 -3 -140 -5 -304 -5 l-298 0 0 35 0
35 299 0 299 0 4 -30z m286 -97 c5 -10 10 -127 10 -261 0 -202 -2 -245 -15
-257 -12 -13 -92 -15 -578 -15 -310 0 -570 3 -579 6 -14 5 -16 38 -16 268 0
145 3 266 7 269 3 4 266 7 584 7 541 0 579 -1 587 -17z m-758 -908 l0 -75
-190 0 c-189 0 -190 0 -195 23 -3 17 -1 114 4 125 1 1 87 2 191 2 l190 0 0
-75z m748 -2 l3 -73 -196 0 -195 0 0 75 0 75 193 -2 192 -3 3 -72z"/>
</g>
</svg>
