<?xml version="1.0" standalone="no"?>
<!DOCTYPE svg PUBLIC "-//W3C//DTD SVG 20010904//EN"
 "http://www.w3.org/TR/2001/REC-SVG-20010904/DTD/svg10.dtd">
<svg version="1.0" xmlns="http://www.w3.org/2000/svg"
 width="500.000000pt" height="500.000000pt" viewBox="0 0 500.000000 500.000000"
 preserveAspectRatio="xMidYMid meet">

<g transform="translate(0.000000,500.000000) scale(0.100000,-0.100000)"
fill="#000000" stroke="none">
<path d="M1362 4184 c-151 -40 -263 -146 -317 -299 -23 -65 -25 -83 -25 -271
l0 -201 -62 -6 c-91 -9 -130 -23 -167 -59 -48 -47 -64 -85 -69 -165 l-5 -73
-36 0 c-21 0 -46 -6 -56 -14 -18 -13 -19 -28 -16 -282 1 -148 6 -272 9 -276 6
-6 155 -11 280 -9 l52 1 0 285 0 285 -29 0 c-53 0 -59 6 -50 58 4 26 10 55 14
64 7 19 62 38 107 38 l28 0 2 -962 3 -963 26 -55 c32 -68 68 -104 122 -125 38
-14 179 -15 1349 -13 l1306 3 43 30 c23 17 56 53 73 80 l31 50 5 975 c5 942 6
975 24 978 10 2 38 1 63 -3 39 -6 47 -11 59 -40 8 -19 14 -53 14 -75 l0 -40
-45 0 -45 0 0 -279 c0 -154 4 -282 8 -285 4 -2 76 -6 158 -8 117 -2 155 0 167
11 15 12 17 44 17 277 l0 264 -25 16 c-17 11 -35 14 -60 10 l-35 -7 0 71 c0
114 -34 173 -125 216 -36 17 -68 24 -112 24 l-63 0 0 210 c0 186 -2 218 -21
272 -46 137 -154 243 -297 290 -52 17 -118 18 -1151 17 -913 0 -1105 -3 -1149
-15z m1749 -204 c18 -10 19 -24 19 -248 0 -190 -3 -242 -14 -258 -14 -18 -34
-19 -614 -22 -527 -2 -601 -1 -612 13 -9 11 -14 78 -17 231 -5 236 -1 280 25
287 38 10 1194 7 1213 -3z m-1523 -390 c41 -25 56 -58 48 -104 -15 -78 -115
-114 -169 -60 -52 52 -39 134 26 167 43 21 56 21 95 -3z m1942 -9 c50 -36 51
-111 2 -156 -62 -58 -172 -8 -172 78 0 50 78 113 125 101 11 -3 31 -14 45 -23z
m-1109 -748 c1 -214 2 -433 3 -488 l1 -100 -580 0 -580 0 -3 488 -2 487 580 0
580 0 1 -387z m1317 -100 l-3 -488 -577 -3 -578 -2 0 490 0 490 580 0 580 0
-2 -487z m-848 -868 c6 -8 9 -23 5 -34 -6 -19 -17 -20 -373 -23 -202 -2 -375
-1 -384 1 -26 5 -34 42 -12 58 28 20 747 19 764 -2z m-1437 -64 c229 -109 300
-162 344 -259 18 -38 25 -70 25 -118 0 -36 -2 -68 -6 -71 -8 -8 -344 53 -403
73 -26 9 -63 27 -82 40 -62 41 -69 62 -71 224 -3 190 -4 180 24 180 13 0 89
-31 169 -69z m2295 -71 c4 -172 0 -192 -47 -239 -48 -48 -116 -74 -246 -95
-55 -9 -135 -23 -178 -33 -95 -20 -101 -16 -92 72 9 85 49 168 104 217 66 58
394 221 436 215 19 -2 20 -11 23 -137z m-914 -233 c11 -8 17 -23 14 -38 l-3
-24 -340 0 -340 0 0 25 c0 46 25 50 351 50 231 0 304 -3 318 -13z"/>
<path d="M1949 3916 c-2 -2 -3 -90 -1 -195 l3 -191 554 0 555 0 0 195 0 195
-553 0 c-305 0 -556 -2 -558 -4z m441 -86 c0 -17 -7 -20 -44 -20 -41 0 -44 -2
-48 -30 -4 -28 -3 -30 29 -30 46 0 73 -30 73 -80 0 -62 -33 -90 -105 -90 -54
0 -55 0 -55 30 0 28 2 29 26 19 33 -12 61 -4 75 24 17 30 -23 61 -68 54 l-33
-6 0 59 c0 88 1 90 81 90 62 0 69 -2 69 -20z m170 -115 l0 -135 -25 0 c-25 0
-25 0 -25 100 l0 100 -30 -6 c-27 -6 -30 -4 -30 17 0 26 45 55 88 58 22 1 22
0 22 -134z m210 0 l0 -135 -25 0 c-25 0 -25 0 -25 100 l0 100 -30 -6 c-27 -6
-30 -4 -30 17 0 26 45 55 88 58 22 1 22 0 22 -134z"/>
<path d="M1320 1672 c0 -100 2 -110 23 -129 29 -27 58 -41 115 -58 56 -17 294
-56 301 -50 10 10 -22 87 -52 127 -43 57 -117 105 -258 167 -64 28 -119 51
-122 51 -4 0 -7 -49 -7 -108z"/>
<path d="M3536 1720 c-136 -63 -205 -109 -241 -162 -27 -40 -51 -105 -42 -114
8 -9 186 13 262 32 69 18 140 56 155 84 11 21 14 220 3 219 -5 0 -66 -27 -137
-59z"/>
<path d="M1261 982 c7 -136 78 -238 185 -262 66 -16 294 -12 345 5 108 37 161
118 164 252 l2 83 -350 0 -349 0 3 -78z"/>
<path d="M3051 968 c6 -102 20 -136 71 -184 68 -64 86 -69 273 -69 155 0 173
2 210 22 88 47 130 120 141 246 l7 77 -354 0 -354 0 6 -92z"/>
</g>
</svg>
